<svg xmlns="http://www.w3.org/2000/svg" xmlns:xlink="http://www.w3.org/1999/xlink" viewBox="0 0 400 400"><defs><style>.cls-1{fill:none;}.cls-2{isolation:isolate;}.cls-11,.cls-3{fill:#fff;}.cls-4{clip-path:url(#clip-path);}.cls-5{opacity:0.05;}.cls-6{fill:#f38632;}.cls-7{fill:#4e4e4e;}.cls-8{fill:url(#linear-gradient);}.cls-9{fill:#f6a259;}.cls-10{fill:#1a1a1a;opacity:0.2;mix-blend-mode:multiply;}.cls-11{opacity:0.15;}</style><clipPath id="clip-path" transform="translate(-100 458)"><path id="SVGID" class="cls-1" d="M500-258c0,110.45-89.55,200-200,200S100-147.53,100-258s89.54-200,200-200S500-368.45,500-258Z"/></clipPath><linearGradient id="linear-gradient" x1="109.36" y1="201.96" x2="223.31" y2="201.96" gradientTransform="translate(32.3 -46.9) rotate(6.74)" gradientUnits="userSpaceOnUse"><stop offset="0" stop-color="#f1ceba"/><stop offset="1" stop-color="#b8846f"/></linearGradient></defs><title>jotform-icon-transparent</title><g class="cls-2"><g id="Layer_1" data-name="Layer 1"><path class="cls-3" d="M500-258c0,110.45-89.55,200-200,200S100-147.53,100-258s89.54-200,200-200S500-368.45,500-258Z" transform="translate(-100 458)"/><g class="cls-4"><path class="cls-5" d="M463.76-225l24.3-101.16A200.63,200.63,0,0,0,385.07-439L348.55-242,212.48-131.52Z" transform="translate(-100 458)"/><path class="cls-6" d="M300-458a200,200,0,0,0-53.91,7.41l-17.92,66.18,37.3,5.29,38.46,13.21,34.74,17.42,27.67-98.18A199.57,199.57,0,0,0,300-458Z" transform="translate(-100 458)"/><polygon class="cls-7" points="149.95 264.59 112.48 326.48 116.95 253.83 127.93 254.27 141.33 257.98 149.95 264.59"/><polygon class="cls-8" points="149.95 264.59 141.33 257.98 127.93 254.27 116.95 253.83 128.18 73.59 165.48 78.88 203.94 92.09 238.68 109.5 149.95 264.59"/><path class="cls-9" d="M246.1-450.59l-17.92,66.18,37.3,5.29,22.69-78.5A199.44,199.44,0,0,0,246.1-450.59Z" transform="translate(-100 458)"/><path class="cls-10" d="M366.35-446.68a198.51,198.51,0,0,0-35.51-8.95l-26.9,89.72L212.48-131.52,250-193.41,338.68-348.5Z" transform="translate(-100 458)"/><polygon class="cls-11" points="112.48 325.54 165.48 78.87 128.18 73.59 112.48 325.54"/><path class="cls-1" d="M500-258c0,110.45-89.55,200-200,200S100-147.53,100-258s89.54-200,200-200S500-368.45,500-258Z" transform="translate(-100 458)"/></g></g></g></svg>