<svg width="120" height="180" viewBox="0 0 120 180" fill="none" xmlns="http://www.w3.org/2000/svg">
<g opacity="0.2">
<path fill-rule="evenodd" clip-rule="evenodd" d="M109.799 144.094C115.743 147.32 115.743 152.584 109.884 155.811L71.5067 176.867C65.5633 180.094 55.969 180.094 50.0256 176.867L11.3935 155.811C5.45011 152.584 5.45011 147.32 11.3086 144.094L49.686 123.037C55.6294 119.811 65.2237 119.811 71.1671 123.037L109.799 144.094Z" fill="#606060"/>
</g>
<path fill-rule="evenodd" clip-rule="evenodd" d="M111.242 141.716V142.565C111.242 142.65 111.242 142.735 111.158 142.735C111.073 142.735 111.158 142.82 111.073 142.905C111.064 142.969 111.034 143.029 110.988 143.074C110.988 143.159 110.903 143.159 110.903 143.244C110.903 143.329 110.818 143.414 110.818 143.499C110.818 143.584 110.733 143.584 110.733 143.669C110.733 143.754 110.648 143.839 110.648 143.924C110.648 144.008 110.563 144.008 110.563 144.093C110.563 144.178 110.478 144.263 110.393 144.348C110.308 144.433 110.308 144.433 110.308 144.518C110.308 144.603 110.139 144.688 110.139 144.773L110.054 144.857C109.969 145.027 109.799 145.112 109.714 145.282L109.629 145.367C109.544 145.452 109.459 145.622 109.29 145.707L109.12 145.876C109.035 145.961 108.95 145.961 108.95 146.046C108.95 146.131 108.78 146.131 108.78 146.216C108.78 146.301 108.61 146.301 108.525 146.386C108.441 146.471 108.356 146.471 108.271 146.556C108.186 146.641 108.101 146.641 108.016 146.725C107.931 146.81 107.846 146.81 107.761 146.895C107.676 146.98 107.591 146.98 107.507 147.065C107.413 147.154 107.295 147.214 107.167 147.235L70.9122 168.291C70.5726 168.461 70.3179 168.631 69.9783 168.801C69.8933 168.801 69.8084 168.886 69.7235 168.886C69.3839 169.056 69.1292 169.141 68.7896 169.31C68.7427 169.31 68.7047 169.348 68.7047 169.395C68.3789 169.546 68.0371 169.66 67.6858 169.735C67.4417 169.832 67.1838 169.889 66.9216 169.905C66.7269 169.973 66.5285 170.029 66.3273 170.074C66.0726 170.159 65.8179 170.159 65.5632 170.244C65.3084 170.329 65.1386 170.329 64.9688 170.329H64.7141C64.3745 170.414 64.0349 170.414 63.6952 170.499H63.4405C63.2386 170.485 63.0361 170.514 62.8462 170.584C62.5066 170.584 62.1669 170.669 61.9122 170.669H59.1103C58.8806 170.683 58.6503 170.654 58.4311 170.584C58.1764 170.584 57.9216 170.499 57.7518 170.499C57.582 170.499 57.3273 170.414 57.0726 170.414C56.8105 170.398 56.5526 170.341 56.3084 170.244C56.1386 170.244 55.8839 170.159 55.7141 170.159C55.3745 170.074 55.1198 169.99 54.865 169.905C54.6103 169.82 54.4405 169.82 54.2707 169.735C54.1009 169.65 54.1009 169.65 53.9311 169.65C53.6346 169.574 53.3492 169.46 53.082 169.31C52.9971 169.31 52.9122 169.225 52.8273 169.225C52.558 169.148 52.3009 169.034 52.0632 168.886C51.9783 168.801 51.8084 168.801 51.7235 168.716L50.7047 168.207L14.1952 147.15C11.3933 145.537 9.94995 143.414 9.94995 141.207V145.112C9.94995 147.235 11.3933 149.357 14.1952 151.056L50.7047 172.112L51.7235 172.622C51.8084 172.707 51.9783 172.707 52.0632 172.791C52.3179 172.876 52.4877 172.961 52.7424 173.046H52.8273C52.9122 173.046 52.9971 173.131 53.082 173.131C53.3785 173.207 53.6639 173.321 53.9311 173.471C54.016 173.471 54.1009 173.556 54.2707 173.556C54.3351 173.565 54.3947 173.594 54.4405 173.641C54.5254 173.641 54.6952 173.725 54.7801 173.725L55.6292 173.98C55.7225 173.969 55.816 174 55.8839 174.065C56.0036 174.052 56.1239 174.082 56.2235 174.15C56.4783 174.235 56.733 174.235 56.9877 174.32C57.1066 174.316 57.2241 174.346 57.3273 174.405H57.6415C57.8962 174.405 58.1509 174.49 58.3207 174.49H61.8018C62.1156 174.508 62.4304 174.479 62.7358 174.405H63.5849C63.9301 174.39 64.2723 174.333 64.6037 174.235H64.9433C65.0864 174.215 65.2282 174.187 65.3679 174.15C65.6226 174.065 65.8773 174.065 66.132 173.98C66.3267 173.912 66.5252 173.856 66.7264 173.81C66.9705 173.714 67.2284 173.656 67.4905 173.641C67.5754 173.641 67.5754 173.641 67.6603 173.556C67.9568 173.479 68.2422 173.365 68.5094 173.216C68.5563 173.216 68.5943 173.178 68.5943 173.131C68.9206 173.025 69.2339 172.883 69.5283 172.707C69.6132 172.707 69.6981 172.622 69.783 172.622C70.1038 172.47 70.4156 172.3 70.7169 172.112L106.972 151.056C107.057 151.056 107.057 150.971 107.141 150.971C107.226 150.971 107.226 150.886 107.311 150.886C107.396 150.886 107.481 150.801 107.566 150.716C107.651 150.631 107.736 150.631 107.821 150.546C107.906 150.461 107.991 150.461 108.075 150.376C108.16 150.291 108.245 150.291 108.33 150.207C108.415 150.122 108.5 150.122 108.585 150.037C108.67 149.952 108.755 149.952 108.755 149.867C108.755 149.782 108.924 149.782 108.924 149.697L109.009 149.612L109.094 149.527L109.434 149.188L109.519 149.103C109.657 148.983 109.772 148.839 109.858 148.678L109.943 148.593C110.028 148.508 110.113 148.424 110.113 148.339C110.113 148.254 110.198 148.254 110.198 148.169C110.198 148.084 110.283 147.999 110.368 147.914C110.425 147.857 110.481 147.801 110.538 147.744C110.538 147.659 110.623 147.574 110.623 147.49C110.623 147.405 110.707 147.405 110.707 147.32C110.707 147.235 110.792 147.15 110.792 147.065V146.887C110.801 146.822 110.831 146.763 110.877 146.717C110.877 146.632 110.877 146.632 110.962 146.547C111.047 146.462 110.962 146.377 111.047 146.377V141.453C111.242 141.546 111.242 141.631 111.242 141.716Z" fill="url(#paint0_linear)"/>
<path fill-rule="evenodd" clip-rule="evenodd" d="M106.997 135.518C112.601 138.744 112.686 144.008 107.082 147.235L70.8274 168.292C65.2237 171.518 56.1388 171.518 50.535 168.292L14.0256 147.235C8.42178 144.008 8.33687 138.744 13.9406 135.518L50.1954 114.461C55.7991 111.235 64.884 111.235 70.4878 114.461L106.997 135.518Z" fill="url(#paint1_linear)"/>
<path fill-rule="evenodd" clip-rule="evenodd" d="M84.8113 140.697C84.132 143.754 81.7547 146.64 77.7641 149.018C67.9999 154.706 52.2075 154.706 42.3584 149.018C38.283 146.64 35.9056 143.669 35.2264 140.612C34.2075 136.282 36.5848 131.782 42.2735 128.471C52.0377 122.782 67.915 122.782 77.6792 128.471C83.4782 131.782 85.8556 136.367 84.8113 140.697Z" fill="url(#paint2_linear)"/>
<path fill-rule="evenodd" clip-rule="evenodd" d="M84.8112 140.697C84.132 143.754 81.7546 146.64 77.7641 149.018C67.9999 154.707 52.2075 154.707 42.3584 149.018C38.2829 146.64 35.9056 143.669 35.2263 140.612C35.9056 137.556 38.2829 134.669 42.2735 132.291C52.0376 126.603 67.915 126.603 77.6791 132.291C81.7801 134.669 84.1575 137.64 84.8112 140.697Z" fill="url(#paint3_linear)"/>
<path fill-rule="evenodd" clip-rule="evenodd" d="M48.8368 118.452C48.8368 117.795 48.3046 117.263 47.6482 117.263C46.9917 117.263 46.4595 117.795 46.4595 118.452C46.4615 118.873 46.688 119.262 47.0538 119.471L47.6482 156.829L48.2425 119.471C48.6083 119.262 48.8348 118.873 48.8368 118.452Z" fill="url(#paint4_linear)"/>
<path fill-rule="evenodd" clip-rule="evenodd" d="M60.9782 113.697C60.9782 112.712 60.1799 111.914 59.1952 111.914C58.2104 111.914 57.4122 112.712 57.4122 113.697C57.4077 114.343 57.7696 114.935 58.3461 115.225L59.1952 169.225H59.1103L59.9593 115.225C60.5689 114.959 60.9672 114.362 60.9782 113.697Z" fill="url(#paint5_linear)"/>
<path fill-rule="evenodd" clip-rule="evenodd" d="M71.6764 129.235C71.6764 128.81 71.4499 128.418 71.0821 128.206C70.7143 127.993 70.2612 127.993 69.8934 128.206C69.5256 128.418 69.2991 128.81 69.2991 129.235C69.3011 129.656 69.5276 130.045 69.8934 130.254L70.4878 157.848L71.0821 130.254C71.4479 130.045 71.6744 129.656 71.6764 129.235Z" fill="url(#paint6_linear)"/>
<path fill-rule="evenodd" clip-rule="evenodd" d="M99.4406 67.2539H20.6482L34.9972 139.084C35.0119 139.569 35.0687 140.052 35.1671 140.527C35.8463 143.584 38.2237 146.556 42.2991 148.933C52.1482 154.622 67.9406 154.622 77.7048 148.933C81.6954 146.641 84.0727 143.669 84.752 140.612C84.8505 140.108 84.9073 139.597 84.9218 139.084L99.4406 67.2539Z" fill="url(#paint7_linear)"/>
<path d="M20.5293 82.6555L53.8293 47.6064" stroke="#B5BDFC" stroke-width="0.28"/>
<path d="M39.6077 1.40088L53.1246 47.3943" stroke="#B5BDFC" stroke-width="0.28"/>
<path d="M100.434 58.5508L53.8293 47.6064" stroke="#B5BDFC" stroke-width="0.28"/>
<path fill-rule="evenodd" clip-rule="evenodd" d="M74.3595 37.1463L36.4151 27.9596C35.8819 27.7659 35.2855 27.88 34.8614 28.2567H34.3859H34.301L32.1699 31.1775H30.7265C29.8754 31.1071 29.1284 31.7401 29.0581 32.5912C28.9877 33.4422 29.6207 34.1892 30.4718 34.2596L37.6038 58.4492C38.1264 59.9206 39.3181 61.0555 40.8133 61.5058L78.7236 70.6926C79.2569 70.8862 79.8533 70.7721 80.2774 70.3954H80.6765H80.7699H80.8548H81.2368L83.3935 68.0605H84.0472C84.404 67.621 84.492 67.0217 84.2765 66.4982L77.5689 40.2029C77.0463 38.7315 75.8547 37.5966 74.3595 37.1463Z" fill="url(#paint8_linear)"/>
<path fill-rule="evenodd" clip-rule="evenodd" d="M56.1133 65.2161L78.7237 70.6925C79.2569 70.8862 79.8533 70.7721 80.2774 70.3954H80.6765H80.7699H80.8548H81.2369L83.3935 68.0605H84.0472C84.404 67.621 84.492 67.0216 84.2765 66.4982L77.5689 40.2029C77.3909 39.6444 77.1021 39.1275 76.7199 38.6831L56.6482 54.4925L56.1133 65.2161Z" fill="url(#paint9_linear)"/>
<path fill-rule="evenodd" clip-rule="evenodd" d="M80.4896 68.8416C80.8887 70.2001 80.0991 71.0322 78.7236 70.6926L40.8132 61.5058C39.318 61.0555 38.1264 59.9206 37.6038 58.4492L30.4717 34.2596C30.0726 32.9011 30.8623 32.0775 32.2377 32.4086L70.1736 41.6039C71.6687 42.0541 72.8604 43.1891 73.383 44.6605L80.4896 68.8416Z" fill="url(#paint10_linear)"/>
<path fill-rule="evenodd" clip-rule="evenodd" d="M59.9935 70.6756C62.685 68.6548 63.6529 64.8426 62.2265 59.969C59.6793 51.3001 50.501 42.5633 41.7302 40.4407C42.1038 36.1614 38.9623 36.6539 36.8821 38.2077C34.1991 40.2284 33.2227 44.0407 34.6576 48.9143C37.2048 57.5746 46.3831 66.3199 55.1453 68.4426C59.0001 69.3765 59.9935 70.6756 59.9935 70.6756Z" fill="url(#paint11_linear)"/>
<path fill-rule="evenodd" clip-rule="evenodd" d="M62.1755 60.0111C64.7227 68.6715 59.6283 73.9696 50.8915 71.8385C42.1547 69.7074 32.951 60.9706 30.4038 52.3102C27.8566 43.6498 32.9085 38.3517 41.6793 40.4743C50.45 42.597 59.6283 51.3423 62.1755 60.0111Z" fill="url(#paint12_linear)"/>
<path fill-rule="evenodd" clip-rule="evenodd" d="M58.8386 59.6717C60.8933 66.6594 56.7924 70.9302 49.7367 69.2151C42.681 67.5 35.2603 60.4443 33.2056 53.4906C31.1508 46.5368 35.2178 42.2321 42.299 43.9472C49.3801 45.6623 56.7924 52.6415 58.8386 59.6717Z" fill="url(#paint13_linear)"/>
<path fill-rule="evenodd" clip-rule="evenodd" d="M57.684 59.4339C59.5519 65.7934 55.8415 69.6736 49.4057 68.1198C42.9698 66.566 36.2283 60.1387 34.3519 53.7707C32.4755 47.4028 36.1858 43.5226 42.6302 45.0849C49.0745 46.6471 55.816 53.0236 57.684 59.4339Z" fill="url(#paint14_linear)"/>
<path fill-rule="evenodd" clip-rule="evenodd" d="M56.6057 59.1281C58.3039 64.8932 54.9076 68.4678 49.0916 67.0159C43.2756 65.564 37.1284 59.7649 35.4388 53.9914C33.7491 48.2178 37.0944 44.6517 42.9444 46.1121C48.7944 47.5725 54.9076 53.3546 56.6057 59.1281Z" fill="url(#paint15_linear)"/>
<path fill-rule="evenodd" clip-rule="evenodd" d="M40.7961 45.8489C36.3131 45.6876 34.0037 49.0159 35.4386 54.0338C35.532 54.3734 35.6509 54.713 35.7782 55.0442L40.7961 45.8489Z" fill="#DB4DF5"/>
<path fill-rule="evenodd" clip-rule="evenodd" d="M49.3207 49.2877C48.9811 49.033 48.633 48.7783 48.2764 48.5405C45.7802 53.0971 43.2896 57.6594 40.8047 62.2273C41.1273 62.5245 41.45 62.8217 41.7896 63.0764L49.3207 49.2877Z" fill="#DB4DF5"/>
<path fill-rule="evenodd" clip-rule="evenodd" d="M54.6273 54.9422C54.3471 54.5092 54.0414 54.0932 53.7188 53.6602C51.4263 57.8545 49.1282 62.0432 46.8245 66.2262C47.2745 66.413 47.733 66.5828 48.183 66.7271L54.6273 54.9422Z" fill="#DB4DF5"/>
<path fill-rule="evenodd" clip-rule="evenodd" d="M76.8472 65.6151C77.3396 67.3132 76.3547 68.3321 74.6481 67.9245C72.7899 67.3612 71.3092 65.9498 70.6575 64.1208C70.1651 62.4226 71.1415 61.4038 72.8566 61.8113C74.7147 62.3746 76.1955 63.7861 76.8472 65.6151Z" fill="url(#paint16_linear)"/>
<path fill-rule="evenodd" clip-rule="evenodd" d="M75.8028 65.3775C76.1339 66.4982 75.4802 67.1775 74.3509 66.9058C73.1081 66.5316 72.1199 65.5845 71.6934 64.3586C71.3707 63.2379 72.016 62.5586 73.1537 62.8303C74.394 63.2056 75.3792 64.1528 75.8028 65.3775Z" fill="white"/>
<path fill-rule="evenodd" clip-rule="evenodd" d="M70.0209 45.8492C70.1312 46.2143 69.919 46.435 69.5539 46.3416L64.4595 45.1105C64.0579 44.9782 63.7428 44.6631 63.6105 44.2614C63.5086 43.8963 63.7209 43.6756 64.086 43.769L69.1803 45.0001C69.5835 45.13 69.8995 45.446 70.0293 45.8492H70.0209Z" fill="#DB4DF5"/>
<path fill-rule="evenodd" clip-rule="evenodd" d="M70.1992 38.7847C69.2901 39.6385 68.0298 40.0103 66.8029 39.7866C65.6992 39.5234 65.436 38.6404 66.2256 37.8168C67.1338 36.9612 68.3936 36.5864 69.6218 36.8064C70.0885 36.8249 70.4912 37.1395 70.6221 37.5879C70.753 38.0363 70.5827 38.5181 70.1992 38.7847Z" fill="url(#paint17_linear)"/>
<path fill-rule="evenodd" clip-rule="evenodd" d="M69.6048 38.6404C68.9613 39.2436 68.0694 39.5052 67.202 39.3451C66.4208 39.1583 66.2425 38.496 66.7859 37.9611C67.4291 37.3509 68.3256 37.0857 69.1972 37.2479C69.5265 37.2594 69.8114 37.4807 69.9039 37.7969C69.9965 38.1132 69.8759 38.4531 69.6048 38.6404Z" fill="white"/>
<path fill-rule="evenodd" clip-rule="evenodd" d="M43.9631 31.4404L44.6933 33.9961L45.2282 34.1319L44.498 31.5678L43.9631 31.4404Z" fill="#DB4DF5"/>
<path fill-rule="evenodd" clip-rule="evenodd" d="M42.0359 30.9565L42.7661 33.5122L43.301 33.6481L42.5708 31.0924L42.0359 30.9565Z" fill="#DB4DF5"/>
<path fill-rule="evenodd" clip-rule="evenodd" d="M40.1169 30.4727L40.8471 33.0368L41.3735 33.1642L40.6434 30.6085L40.1169 30.4727Z" fill="#DB4DF5"/>
<path fill-rule="evenodd" clip-rule="evenodd" d="M38.1897 29.9888L38.9199 32.5529L39.4548 32.6803L38.7246 30.1246L38.1897 29.9888Z" fill="#DB4DF5"/>
<path fill-rule="evenodd" clip-rule="evenodd" d="M86.6709 12.4556L100.434 58.5508L67.5926 93.7103L53.8293 47.6065L86.6709 12.4556V12.4556Z" stroke="#B5BDFC" stroke-width="0.28"/>
<path fill-rule="evenodd" clip-rule="evenodd" d="M53.8293 47.6065L67.5925 93.7102L20.5293 82.6555L6.76611 36.5518L53.8293 47.6065V47.6065Z" stroke="#B5BDFC" stroke-width="0.28"/>
<path fill-rule="evenodd" clip-rule="evenodd" d="M86.6708 12.4556L53.8293 47.6065L6.76611 36.5518L39.6076 1.40088L86.6708 12.4556V12.4556Z" stroke="#B5BDFC" stroke-width="0.28"/>
<path fill-rule="evenodd" clip-rule="evenodd" d="M6.40094 37.8424C7.17466 37.8424 7.80189 37.2152 7.80189 36.4415C7.80189 35.6678 7.17466 35.0405 6.40094 35.0405C5.62722 35.0405 5 35.6678 5 36.4415C5 37.2152 5.62722 37.8424 6.40094 37.8424Z" fill="#B6BDFC"/>
<path fill-rule="evenodd" clip-rule="evenodd" d="M39.6075 2.80189C40.3812 2.80189 41.0084 2.17466 41.0084 1.40094C41.0084 0.627224 40.3812 0 39.6075 0C38.8338 0 38.2065 0.627224 38.2065 1.40094C38.2065 2.17466 38.8338 2.80189 39.6075 2.80189Z" fill="#B6BDFC"/>
<path fill-rule="evenodd" clip-rule="evenodd" d="M53.7188 48.6339C54.4925 48.6339 55.1198 48.0067 55.1198 47.233C55.1198 46.4593 54.4925 45.832 53.7188 45.832C52.9451 45.832 52.3179 46.4593 52.3179 47.233C52.3179 48.0067 52.9451 48.6339 53.7188 48.6339Z" fill="#B6BDFC"/>
<path fill-rule="evenodd" clip-rule="evenodd" d="M67.7198 95.069C68.4935 95.069 69.1207 94.4418 69.1207 93.668C69.1207 92.8943 68.4935 92.2671 67.7198 92.2671C66.9461 92.2671 66.3188 92.8943 66.3188 93.668C66.3188 94.4418 66.9461 95.069 67.7198 95.069Z" fill="#B6BDFC"/>
<path fill-rule="evenodd" clip-rule="evenodd" d="M86.6707 13.8566C87.4444 13.8566 88.0717 13.2294 88.0717 12.4556C88.0717 11.6819 87.4444 11.0547 86.6707 11.0547C85.897 11.0547 85.2698 11.6819 85.2698 12.4556C85.2698 13.2294 85.897 13.8566 86.6707 13.8566Z" fill="#B6BDFC"/>
<path fill-rule="evenodd" clip-rule="evenodd" d="M20.334 84.0314C21.1078 84.0314 21.735 83.4042 21.735 82.6304C21.735 81.8567 21.1078 81.2295 20.334 81.2295C19.5603 81.2295 18.9331 81.8567 18.9331 82.6304C18.9331 83.4042 19.5603 84.0314 20.334 84.0314Z" fill="#B6BDFC"/>
<path fill-rule="evenodd" clip-rule="evenodd" d="M100.604 60.0451C101.378 60.0451 102.005 59.4178 102.005 58.6441C102.005 57.8704 101.378 57.2432 100.604 57.2432C99.8301 57.2432 99.2029 57.8704 99.2029 58.6441C99.2029 59.4178 99.8301 60.0451 100.604 60.0451Z" fill="#B6BDFC"/>
<defs>
<linearGradient id="paint0_linear" x1="9.77165" y1="174.526" x2="111.268" y2="174.526" gradientUnits="userSpaceOnUse">
<stop stop-color="#7348BF"/>
<stop offset="0.25" stop-color="#784AC1"/>
<stop offset="0.54" stop-color="#854FC8"/>
<stop offset="0.85" stop-color="#9C58D4"/>
<stop offset="1" stop-color="#AA5DDB"/>
</linearGradient>
<linearGradient id="paint1_linear" x1="165.968" y1="189.586" x2="165.968" y2="67.6274" gradientUnits="userSpaceOnUse">
<stop stop-color="#DBA5F5"/>
<stop offset="0.19" stop-color="#DDAAF6"/>
<stop offset="0.41" stop-color="#E2B7F7"/>
<stop offset="0.65" stop-color="#EBCEFA"/>
<stop offset="0.89" stop-color="#F8EEFD"/>
<stop offset="1" stop-color="white"/>
</linearGradient>
<linearGradient id="paint2_linear" x1="87.3508" y1="-369.756" x2="87.3508" y2="-401.485" gradientUnits="userSpaceOnUse">
<stop stop-color="#7348BF"/>
<stop offset="0.25" stop-color="#784AC1"/>
<stop offset="0.54" stop-color="#854FC8"/>
<stop offset="0.85" stop-color="#9C58D4"/>
<stop offset="1" stop-color="#AA5DDB"/>
</linearGradient>
<linearGradient id="paint3_linear" x1="14.5261" y1="-421.548" x2="14.5261" y2="-375.173" gradientUnits="userSpaceOnUse">
<stop stop-color="#7348BF"/>
<stop offset="0.25" stop-color="#784AC1"/>
<stop offset="0.54" stop-color="#854FC8"/>
<stop offset="0.85" stop-color="#9C58D4"/>
<stop offset="1" stop-color="#AA5DDB"/>
</linearGradient>
<linearGradient id="paint4_linear" x1="48.8544" y1="143.891" x2="42.8091" y2="142.469" gradientUnits="userSpaceOnUse">
<stop stop-color="white" stop-opacity="0.01"/>
<stop offset="1" stop-color="white" stop-opacity="0.8"/>
</linearGradient>
<linearGradient id="paint5_linear" x1="58.6871" y1="-404.697" x2="49.3732" y2="-402.329" gradientUnits="userSpaceOnUse">
<stop stop-color="white" stop-opacity="0.01"/>
<stop offset="1" stop-color="white" stop-opacity="0.8"/>
</linearGradient>
<linearGradient id="paint6_linear" x1="70.0535" y1="-397.396" x2="63.0535" y2="-394.519" gradientUnits="userSpaceOnUse">
<stop stop-color="white" stop-opacity="0.01"/>
<stop offset="1" stop-color="white" stop-opacity="0.8"/>
</linearGradient>
<linearGradient id="paint7_linear" x1="16.9489" y1="69.0539" x2="16.9489" y2="163.07" gradientUnits="userSpaceOnUse">
<stop stop-color="#DBA5F5" stop-opacity="0.01"/>
<stop offset="0.21" stop-color="#DB9CF5" stop-opacity="0.21"/>
<stop offset="0.55" stop-color="#DB84F5" stop-opacity="0.55"/>
<stop offset="0.99" stop-color="#DB5CF5" stop-opacity="0.99"/>
<stop offset="1" stop-color="#DB5BF5"/>
</linearGradient>
<linearGradient id="paint8_linear" x1="44.6174" y1="71.6526" x2="83.1332" y2="52.8422" gradientUnits="userSpaceOnUse">
<stop stop-color="#DBA5F5"/>
<stop offset="0.19" stop-color="#DBA0F5"/>
<stop offset="0.41" stop-color="#DB93F5"/>
<stop offset="0.64" stop-color="#DB7CF5"/>
<stop offset="0.87" stop-color="#DB5CF5"/>
<stop offset="1" stop-color="#DB48F5"/>
</linearGradient>
<linearGradient id="paint9_linear" x1="84.0184" y1="64.7072" x2="74.56" y2="36.8951" gradientUnits="userSpaceOnUse">
<stop stop-color="#7348BF"/>
<stop offset="0.25" stop-color="#784AC1"/>
<stop offset="0.54" stop-color="#854FC8"/>
<stop offset="0.85" stop-color="#9C58D4"/>
<stop offset="1" stop-color="#AA5DDB"/>
</linearGradient>
<linearGradient id="paint10_linear" x1="119.02" y1="178.15" x2="157.236" y2="178.15" gradientUnits="userSpaceOnUse">
<stop stop-color="#DBA5F5"/>
<stop offset="0.19" stop-color="#DBA0F5"/>
<stop offset="0.41" stop-color="#DB93F5"/>
<stop offset="0.64" stop-color="#DB7CF5"/>
<stop offset="0.87" stop-color="#DB5CF5"/>
<stop offset="1" stop-color="#DB48F5"/>
</linearGradient>
<linearGradient id="paint11_linear" x1="48.9285" y1="35.8128" x2="31.5146" y2="50.5236" gradientUnits="userSpaceOnUse">
<stop stop-color="#7348BF"/>
<stop offset="0.25" stop-color="#784AC1"/>
<stop offset="0.54" stop-color="#854FC8"/>
<stop offset="0.85" stop-color="#9C58D4"/>
<stop offset="1" stop-color="#AA5DDB"/>
</linearGradient>
<linearGradient id="paint12_linear" x1="113.832" y1="179.176" x2="142.148" y2="179.176" gradientUnits="userSpaceOnUse">
<stop stop-color="#DBA5F5"/>
<stop offset="0.19" stop-color="#DBA0F5"/>
<stop offset="0.41" stop-color="#DB93F5"/>
<stop offset="0.64" stop-color="#DB7CF5"/>
<stop offset="0.87" stop-color="#DB5CF5"/>
<stop offset="1" stop-color="#DB48F5"/>
</linearGradient>
<linearGradient id="paint13_linear" x1="129.773" y1="154.166" x2="115.298" y2="163.732" gradientUnits="userSpaceOnUse">
<stop stop-color="#DBA5F5"/>
<stop offset="0.19" stop-color="#DBA0F5"/>
<stop offset="0.41" stop-color="#DB93F5"/>
<stop offset="0.64" stop-color="#DB7CF5"/>
<stop offset="0.87" stop-color="#DB5CF5"/>
<stop offset="1" stop-color="#DB48F5"/>
</linearGradient>
<linearGradient id="paint14_linear" x1="39.0347" y1="69.2412" x2="58.8954" y2="63.1185" gradientUnits="userSpaceOnUse">
<stop stop-color="#7348BF"/>
<stop offset="0.25" stop-color="#784AC1"/>
<stop offset="0.54" stop-color="#854FC8"/>
<stop offset="0.85" stop-color="#9C58D4"/>
<stop offset="1" stop-color="#AA5DDB"/>
</linearGradient>
<linearGradient id="paint15_linear" x1="118.188" y1="174.883" x2="137.054" y2="174.883" gradientUnits="userSpaceOnUse">
<stop stop-color="#DBA5F5"/>
<stop offset="0.19" stop-color="#DBA0F5"/>
<stop offset="0.41" stop-color="#DB93F5"/>
<stop offset="0.64" stop-color="#DB7CF5"/>
<stop offset="0.87" stop-color="#DB5CF5"/>
<stop offset="1" stop-color="#DB48F5"/>
</linearGradient>
<linearGradient id="paint16_linear" x1="71.8862" y1="68.2511" x2="77.1519" y2="66.6289" gradientUnits="userSpaceOnUse">
<stop stop-color="#7348BF"/>
<stop offset="0.25" stop-color="#784AC1"/>
<stop offset="0.54" stop-color="#854FC8"/>
<stop offset="0.85" stop-color="#9C58D4"/>
<stop offset="1" stop-color="#AA5DDB"/>
</linearGradient>
<linearGradient id="paint17_linear" x1="66.8886" y1="40.562" x2="70.7157" y2="37.7681" gradientUnits="userSpaceOnUse">
<stop stop-color="#7348BF"/>
<stop offset="0.25" stop-color="#784AC1"/>
<stop offset="0.54" stop-color="#854FC8"/>
<stop offset="0.85" stop-color="#9C58D4"/>
<stop offset="1" stop-color="#AA5DDB"/>
</linearGradient>
</defs>
</svg>
